# xmcd CD database file
#
# Track frame offsets:
#	150
#	17821
#	36273
#	54847
#	69799
#	82375
#	101877
#	125052
#	140313
#	159328
#	179868
#	206370
#	227063
#
# Disc length: 3495 seconds
#
# Revision: 1
# Processed by: cddbd v1.4PL0 Copyright (c) Steve Scherf et al.
# Submitted via: CDex 1.50Beta7
#
DISCID=b50da50d
DTITLE=Eric Clapton - blues rehearsals
DYEAR=1995
DGENRE=Blues
TTITLE0=Hootchie coochie man
TTITLE1=I'm tore down
TTITLE2=Sinner's prayer
TTITLE3=Motherless child
TTITLE4=Malted milk
TTITLE5=Borm under a bad sign
TTITLE6=someday after a while
TTITLE7=it hurts me too
TTITLE8=44
TTITLE9=five long yers
TTITLE10=crossroads
TTITLE11=ain't nobody's business
TTITLE12=I'm tore down/Five long yers
EXTD=YEAR: 1995
EXTT0=
EXTT1=
EXTT2=
EXTT3=
EXTT4=
EXTT5=
EXTT6=
EXTT7=
EXTT8=
EXTT9=
EXTT10=
EXTT11=
EXTT12=
PLAYORDER=
